<?xml version="1.0" encoding="UTF-8" standalone="no"?>
<!DOCTYPE svg PUBLIC "-//W3C//DTD SVG 1.1//EN"
 "http://www.w3.org/Graphics/SVG/1.1/DTD/svg11.dtd">
<!-- Generated by graphviz version 2.43.0 (0)
 -->
<!-- Title: %3 Pages: 1 -->
<svg width="577pt" height="404pt"
 viewBox="0.00 0.00 577.00 404.00" xmlns="http://www.w3.org/2000/svg" xmlns:xlink="http://www.w3.org/1999/xlink">
<g id="graph0" class="graph" transform="scale(1 1) rotate(0) translate(4 400)">
<title>%3</title>
<polygon fill="white" stroke="transparent" points="-4,4 -4,-400 573,-400 573,4 -4,4"/>
<!-- 6285437006300632356 -->
<g id="node1" class="node">
<title>6285437006300632356</title>
<polygon fill="none" stroke="black" points="380.5,-396 188.5,-396 188.5,-360 380.5,-360 380.5,-396"/>
<text text-anchor="middle" x="284.5" y="-373" font-family="Helvetica,sans-Serif" font-size="20.00">Round(Projection)</text>
</g>
<!-- &#45;9018552087163661590 -->
<g id="node2" class="node">
<title>&#45;9018552087163661590</title>
<polygon fill="none" stroke="black" points="406.5,-324 162.5,-324 162.5,-288 406.5,-288 406.5,-324"/>
<text text-anchor="middle" x="284.5" y="-301" font-family="Helvetica,sans-Serif" font-size="20.00">Projection(Mean, Price)</text>
</g>
<!-- &#45;9018552087163661590&#45;&gt;6285437006300632356 -->
<g id="edge1" class="edge">
<title>&#45;9018552087163661590&#45;&gt;6285437006300632356</title>
<path fill="none" stroke="black" d="M284.5,-324.3C284.5,-332.02 284.5,-341.29 284.5,-349.89"/>
<polygon fill="black" stroke="black" points="281,-349.9 284.5,-359.9 288,-349.9 281,-349.9"/>
</g>
<!-- &#45;5350341522526098521 -->
<g id="node3" class="node">
<title>&#45;5350341522526098521</title>
<polygon fill="none" stroke="black" points="376,-252 193,-252 193,-216 376,-216 376,-252"/>
<text text-anchor="middle" x="284.5" y="-229" font-family="Helvetica,sans-Serif" font-size="20.00">Mean(Projection)</text>
</g>
<!-- &#45;5350341522526098521&#45;&gt;&#45;9018552087163661590 -->
<g id="edge2" class="edge">
<title>&#45;5350341522526098521&#45;&gt;&#45;9018552087163661590</title>
<path fill="none" stroke="black" d="M284.5,-252.3C284.5,-260.02 284.5,-269.29 284.5,-277.89"/>
<polygon fill="black" stroke="black" points="281,-277.9 284.5,-287.9 288,-277.9 281,-277.9"/>
</g>
<!-- 5252531304735478729 -->
<g id="node4" class="node">
<title>5252531304735478729</title>
<polygon fill="none" stroke="black" points="569,-180 0,-180 0,-144 569,-144 569,-180"/>
<text text-anchor="middle" x="284.5" y="-157" font-family="Helvetica,sans-Serif" font-size="20.00">Projection(ArrowStringConversion, [&#39;Product ID&#39;, &#39;Price&#39;])</text>
</g>
<!-- 5252531304735478729&#45;&gt;&#45;5350341522526098521 -->
<g id="edge3" class="edge">
<title>5252531304735478729&#45;&gt;&#45;5350341522526098521</title>
<path fill="none" stroke="black" d="M284.5,-180.3C284.5,-188.02 284.5,-197.29 284.5,-205.89"/>
<polygon fill="black" stroke="black" points="281,-205.9 284.5,-215.9 288,-205.9 281,-205.9"/>
</g>
<!-- &#45;8910669443878915153 -->
<g id="node5" class="node">
<title>&#45;8910669443878915153</title>
<polygon fill="none" stroke="black" points="514.5,-108 54.5,-108 54.5,-72 514.5,-72 514.5,-108"/>
<text text-anchor="middle" x="284.5" y="-85" font-family="Helvetica,sans-Serif" font-size="20.00">ArrowStringConversion(FromMapProjectable)</text>
</g>
<!-- &#45;8910669443878915153&#45;&gt;5252531304735478729 -->
<g id="edge4" class="edge">
<title>&#45;8910669443878915153&#45;&gt;5252531304735478729</title>
<path fill="none" stroke="black" d="M284.5,-108.3C284.5,-116.02 284.5,-125.29 284.5,-133.89"/>
<polygon fill="black" stroke="black" points="281,-133.9 284.5,-143.9 288,-133.9 281,-133.9"/>
</g>
<!-- &#45;2085392660930727069 -->
<g id="node6" class="node">
<title>&#45;2085392660930727069</title>
<polygon fill="none" stroke="black" points="393,-36 176,-36 176,0 393,0 393,-36"/>
<text text-anchor="middle" x="284.5" y="-13" font-family="Helvetica,sans-Serif" font-size="20.00">FromMapProjectable</text>
</g>
<!-- &#45;2085392660930727069&#45;&gt;&#45;8910669443878915153 -->
<g id="edge5" class="edge">
<title>&#45;2085392660930727069&#45;&gt;&#45;8910669443878915153</title>
<path fill="none" stroke="black" d="M284.5,-36.3C284.5,-44.02 284.5,-53.29 284.5,-61.89"/>
<polygon fill="black" stroke="black" points="281,-61.9 284.5,-71.9 288,-61.9 281,-61.9"/>
</g>
</g>
</svg>
